<svg width="60" height="60" viewBox="0 0 60 60" fill="none" xmlns="http://www.w3.org/2000/svg">
    <rect width="60" height="60" rx="4" fill="#3083BF"/>
    <path fill-rule="evenodd" clip-rule="evenodd" d="M37.1723 21.4804C37.4384 21.4716 37.7771 21.4539 38.042 21.4804C38.6261 21.4804 38.0951 21.4804 38.5995 21.4804C38.7068 21.5086 38.9978 21.4514 38.8715 21.4804C38.783 21.4804 38.6837 21.7965 38.5952 21.7965C38.5952 21.885 38.3936 22.0645 38.3936 22.0645C38.8119 21.5841 38.6261 21.7434 38.8715 21.4804C41.9158 21.4715 44.9606 21.4804 48.0049 21.5069C48.0755 23.7903 48.0755 26.0736 48.0049 28.3569C48.0362 28.3816 48.0718 28.3904 48.1111 28.3835C43.5088 28.4189 38.9069 28.4543 34.3048 28.4897C33.672 28.6987 33.3357 29.1412 33.2959 29.8172C33.3868 30.4304 33.7231 30.8463 34.3048 31.0651C35.9695 31.0724 37.6333 31.1078 39.2963 31.1713C41.431 31.3104 43.3601 32.0007 45.0843 33.2422C47.4298 35.3774 48.3766 38.0235 47.9252 41.1808C47.2344 44.8453 45.0663 47.0841 41.4204 47.8981C40.2989 48.1286 39.1661 48.2703 38.0219 48.3229C34.0935 48.2555 30.164 48.2289 26.2335 48.2433C26.2335 45.9068 26.2335 43.5704 26.2335 41.2339C30.9063 41.2068 35.5792 41.1803 40.2521 41.1543C41.1469 40.8967 41.5096 40.304 41.3407 39.3754C41.1639 38.8799 40.8187 38.5701 40.3052 38.4461C38.3495 38.4862 36.4025 38.38 34.4641 38.1275C32.3522 37.8321 30.476 37.0179 28.8354 35.6849C26.8087 33.6432 26.0211 31.1917 26.4724 28.3304C27.0855 25.1333 28.9529 23.089 32.0746 22.1972C33.7424 21.7334 35.4416 21.4944 37.1723 21.4804Z" fill="white" fill-opacity="0.5"/>
    <path d="M45.6685 11.816C46.2244 11.8861 46.791 11.9215 47.3677 11.9222C47.6162 11.9311 47.8642 11.9488 48.1111 11.9753C48.1111 14.0993 48.1111 16.2233 48.1111 18.3474C44.4556 18.3297 40.8097 18.3474 37.1723 18.4005C36.7484 18.4358 36.3236 18.4535 35.8979 18.4536C35.4517 18.4199 35.0269 18.4553 34.6235 18.5598C32.9518 18.6293 31.3057 18.8683 29.6851 19.2766C26.4407 20.1318 24.4848 22.2116 23.8174 25.516C23.729 26.0824 23.6493 26.6489 23.5785 27.2152C23.4879 27.5021 23.4525 27.8031 23.4723 28.118C23.3772 29.6024 23.3417 31.0892 23.3661 32.5784C23.3837 33.1459 23.366 33.7124 23.313 34.2777C23.2609 34.1403 23.2633 34.4235 23.2799 34.2777C23.0138 34.2689 23.0669 34.7001 22.802 34.7266C22.8062 35.0605 23.0717 34.4233 23.0675 34.7797C23.3154 34.7797 22.9589 34.9149 23.2068 34.9149C23.3117 39.2646 23.3472 43.6187 23.313 47.9777C21.1374 48.0213 18.9602 48.0478 16.7815 48.0574C18.9754 48.0829 21.1613 48.0919 23.3395 48.0839C23.3947 48.0446 23.4212 47.9915 23.4192 47.9246C23.4368 47.9246 23.4546 47.9246 23.4723 47.9246C23.4723 48.0133 23.4723 48.1014 23.4723 48.1901C21.1889 48.1901 18.9056 48.1901 16.6222 48.1901C16.6222 45.6413 16.6222 43.0924 16.6222 40.5436C17.003 40.5346 17.2154 40.3399 17.2595 39.9595C17.2595 39.9595 16.995 39.4014 16.6222 39.3754C16.6399 37.4016 16.6221 35.4369 16.5691 33.4812C14.4719 33.4281 12.3655 33.4104 10.2501 33.4281C10.2327 31.1409 10.2504 28.8575 10.3032 26.578C10.6218 26.578 10.9404 26.578 11.259 26.578C12.6749 26.6075 14.0909 26.6252 15.5071 26.6311C15.9496 26.6311 16.3922 26.6311 16.8346 26.6311C16.6913 23.7196 17.3994 21.0468 18.9587 18.6129C19.2954 18.179 19.6406 17.7542 19.9942 17.3385C20.0478 17.294 19.9942 17.3385 20.1204 17.2298C20.219 17.114 20.1809 17.1764 20.2066 17.1261C21.24 16.1275 22.3904 15.2956 23.6581 14.6303C25.537 13.7344 27.4929 13.0706 29.5258 12.639C33.247 11.986 36.9995 11.6763 40.7832 11.7098C42.4123 11.7142 44.0409 11.7496 45.6685 11.816Z" fill="white" fill-opacity="0.5"/>
    <path d="M16.5627 33.2662H19.9346H23.3065V48.1876H16.5627V33.2662Z" fill="white" fill-opacity="0"/>
</svg>
