<svg xmlns="http://www.w3.org/2000/svg" width="48" height="48" viewBox="0 0 48 48" fill="none">
<path d="M14.708 22.214V19.004C14.708 18.814 14.708 18.738 14.956 18.738C17.082 18.738 18.81 18.612 19.668 19.118C20.528 19.622 20.564 20.318 20.578 20.526C20.594 20.734 20.586 21.032 20.186 21.758C19.786 22.484 17.996 22.498 16.704 22.498H14.994C14.784 22.498 14.708 22.422 14.708 22.214ZM20.6 25.578C20.7978 25.831 20.9389 26.1235 21.0138 26.4357C21.0887 26.748 21.0957 27.0727 21.0343 27.3878C20.9728 27.703 20.8444 28.0013 20.6577 28.2625C20.471 28.5238 20.2303 28.7418 19.952 28.902C19.5427 29.0737 19.1039 29.164 18.66 29.168H14.974C14.784 29.168 14.708 29.168 14.708 28.922V25.122C14.708 24.932 14.708 24.856 14.956 24.856H17.406C18.926 24.856 19.876 24.724 20.6 25.578Z" fill="#2584C9"/>
<path d="M31.7489 23.3705C31.655 23.1486 31.5123 22.9507 31.3314 22.7916C31.1505 22.6324 30.936 22.516 30.704 22.4511C30.2403 22.3246 29.755 22.2979 29.2803 22.3727C28.8055 22.4475 28.3519 22.6221 27.9495 22.8849C27.5482 23.2897 27.289 23.8138 27.2111 24.3785C27.2111 24.576 27.2111 24.6129 27.4455 24.6129H31.8209C32.0369 24.6129 32.0369 24.6129 32.0185 24.3415C31.9974 24.0023 31.9068 23.6714 31.7489 23.3705ZM31.7489 23.3705C31.655 23.1486 31.5104 22.9507 31.3295 22.7916C31.1486 22.6324 30.936 22.516 30.704 22.4511C30.2403 22.3246 29.7532 22.2979 29.2784 22.3727C28.8036 22.4475 28.3519 22.6221 27.9495 22.8849C27.5482 23.2897 27.2872 23.8138 27.2092 24.3785C27.2092 24.576 27.2092 24.6129 27.4437 24.6129H31.8209C32.0369 24.6129 32.0369 24.6129 32.0185 24.3415C31.9974 24.0023 31.9031 23.6714 31.7452 23.3705M33.8 6H12.2C10.2904 6 8.45909 6.75857 7.10883 8.10883C5.75857 9.45909 5 11.2904 5 13.2V34.8C5 36.7096 5.75857 38.5409 7.10883 39.8912C8.45909 41.2414 10.2904 42 12.2 42H33.8C35.7096 42 37.5409 41.2414 38.8912 39.8912C40.2414 38.5409 41 36.7096 41 34.8V13.2C41 11.2904 40.2414 9.45909 38.8912 8.10883C37.5409 6.75857 35.7096 6 33.8 6ZM26.744 17.4646C26.744 17.3225 26.744 17.2671 26.9065 17.2671H32.7385V18.7809C32.7385 18.7809 32.744 18.888 32.648 18.888H26.9969C26.744 18.888 26.744 18.888 26.744 18.6369V17.4646ZM21.344 30.696C19.1286 31.9015 15.4049 31.416 10.9945 31.416V16.4935H18.032C19.832 16.4935 21.9735 16.944 22.5495 18.8511C22.8486 19.684 22.8304 20.598 22.4984 21.4183C22.1664 22.2387 21.5438 22.908 20.7495 23.2985C21.4816 23.5694 22.1208 24.0444 22.5914 24.6672C23.0619 25.29 23.3442 26.0346 23.4048 26.8129C23.4654 27.5912 23.3018 28.3705 22.9333 29.0587C22.5648 29.7468 22.0069 30.315 21.3255 30.696H21.344ZM34.7545 26.448H27.5545C27.3569 26.448 27.176 26.5551 27.2111 26.808C27.4271 27.8695 27.9126 28.9865 29.0129 29.1489C29.594 29.3208 30.2158 29.2938 30.7797 29.072C31.3436 28.8503 31.8172 28.4466 32.1255 27.9249C32.1255 27.9249 32.216 27.816 32.2695 27.816H34.6105C34.6105 27.816 34.7545 27.816 34.7175 27.9415C34.4724 28.6414 34.1069 29.293 33.6375 29.8671C33.0117 30.4643 32.2567 30.9094 31.4311 31.1678C30.6055 31.4262 29.7315 31.491 28.8769 31.3571C28.0222 31.2232 27.2099 30.8942 26.5028 30.3957C25.7958 29.8972 25.2132 29.2425 24.8 28.4825C24.5447 27.976 24.3862 27.4262 24.3329 26.8615C24.0118 25.4429 24.2573 23.955 25.0169 22.7147C25.7766 21.4743 26.9904 20.5796 28.4 20.2209C32.4855 19.3385 35.0775 22.1465 35.0775 26.1065C35.0836 26.1527 35.0789 26.1998 35.0639 26.244C35.0489 26.2882 35.0239 26.3283 34.9909 26.3614C34.9579 26.3944 34.9177 26.4193 34.8735 26.4344C34.8293 26.4494 34.7823 26.4541 34.736 26.448H34.7545ZM30.7225 22.4511C30.2588 22.325 29.7737 22.2986 29.2991 22.3735C28.8246 22.4474 28.4 22.5378 27.968 22.8849C27.536 23.2302 27.3071 23.8135 27.2295 24.3785C27.2295 24.576 27.2295 24.6129 27.464 24.6129H31.8209C32.0369 24.6129 32.0369 24.6129 32.0185 24.3415C31.9974 24.0023 31.9068 23.6714 31.7489 23.3705C31.655 23.1486 31.5123 22.9507 31.3314 22.7916C31.1505 22.6324 30.936 22.516 30.704 22.4511H30.7225Z" fill="#2584C9"/>
</svg>