<svg width="185" height="31" viewBox="0 0 185 31" fill="none" xmlns="http://www.w3.org/2000/svg">
<path d="M85.6339 7.03732H92.824C94.8716 7.37658 96.9137 7.79725 98.9481 8.19757C98.9202 8.7743 98.8509 9.92776 98.8223 10.5045C94.2864 9.47995 89.3404 8.22471 84.8052 9.85991C80.0111 11.8615 80.7562 19.5483 85.3347 21.3878C89.0137 22.8798 93.2218 22.3777 96.9287 21.2252C97.0046 19.7325 96.5246 18.0763 97.2411 16.6996C98.4604 16.0822 99.7845 15.709 101.08 15.2676C101.234 17.8263 101.262 20.3971 101.179 22.9619C99.3254 23.2944 97.4784 23.6675 95.6328 24.0003H84.8616C82.7917 23.4643 80.6043 22.8608 79.0301 21.3677C75.9855 18.4362 76.0412 13.205 78.8347 10.1384C80.589 8.26542 83.2093 7.63441 85.6339 7.03732Z" fill="white"/>
<path d="M112.757 7.03732H119.975C121.855 7.41729 123.743 7.74297 125.638 8.02794C125.737 8.87608 125.834 9.71743 125.932 10.5656C121.25 9.48673 116.046 8.04151 111.419 10.0363C106.765 12.3975 107.957 20.1122 112.798 21.6049C116.282 22.6705 120.232 22.5151 123.647 21.2656C123.841 19.8011 123.716 18.2938 124.044 16.8421C125.256 15.9865 126.788 15.7701 128.175 15.3155C128.161 17.7649 128.677 20.35 128.022 22.7169C126.406 23.5118 124.524 23.6336 122.761 24H112.005C109.588 23.5118 107.017 22.7448 105.421 20.7839C102.871 17.5959 103.122 12.4868 106.229 9.72421C108.027 8.13684 110.472 7.58691 112.757 7.03732Z" fill="white"/>
<path d="M26.2044 9.70386C26.1905 7.93296 28.5662 6.96948 29.8552 8.18401C31.9801 10.1924 33.91 12.3772 36.0207 14.3991C37.031 15.2337 37.8883 16.6518 39.3792 16.5972C42.6538 14.1613 45.141 10.9045 48.1373 8.17688C49.398 6.8063 51.8992 8.01404 51.7319 9.77816C51.8507 14.3174 51.6766 18.863 51.8086 23.4026C50.3737 23.4365 48.9381 23.4637 47.5032 23.3951C47.4127 19.5012 47.4684 15.5998 47.4963 11.7051C44.2496 13.361 42.8746 17.4653 39.2308 18.2785C35.9772 16.9289 33.6174 13.4289 30.5728 11.7462C30.6285 15.6476 30.7052 19.549 30.5588 23.4433C29.0888 23.4504 27.6118 23.4504 26.1417 23.4433C26.1487 18.8637 26.0163 14.277 26.2044 9.70386Z" fill="white"/>
<path d="M62.726 10.0906C63.569 8.79466 64.7468 7.03733 66.621 7.76333C67.603 8.61825 68.2861 9.731 69.0316 10.7759C71.923 15.0505 75.2323 19.0401 77.9499 23.4301C76.2708 23.4843 74.5705 23.579 72.9123 23.2737C69.7844 19.5419 67.4361 15.2066 64.1128 11.6173C61.528 15.3151 58.8108 18.9112 56.2469 22.6159C55.8292 23.5183 53.9338 23.9661 53.4813 22.9409C56.5183 18.6266 59.7368 14.4402 62.726 10.0906Z" fill="white"/>
<path d="M130.607 9.03891C132.035 8.42147 133.497 7.89902 135.024 7.55977C135.08 12.8453 135.108 18.3609 135.004 23.6472C133.548 23.5929 132.14 23.6607 130.683 23.6472C130.607 18.8841 130.586 13.7953 130.607 9.03891Z" fill="white"/>
<path d="M9.24636 10.3125C10.0894 9.01652 11.2668 7.25919 13.141 7.98519C14.1233 8.84011 14.8061 9.95286 15.5516 10.9978C18.443 15.273 21.7523 19.2613 24.4695 23.6523C22.7905 23.7062 21.0905 23.8012 19.4323 23.4959C16.3041 19.7641 13.9561 15.4294 10.6328 11.8401C8.04801 15.538 5.33083 19.1341 2.76693 22.8381C2.3489 23.7405 0.45384 24.1883 0.000976562 23.1631C3.03864 18.8478 6.25746 14.662 9.24636 10.3125Z" fill="white"/>
<path d="M165.287 7.002H173.034L184.999 23.9306H177.253L165.287 7.002Z" fill="white"/>
<path d="M145.219 7.00199C147.379 7.00199 148.656 7 150.816 7C152.736 7 153.558 7.95766 154.293 8.88129L164.93 23.9306H157.184L145.219 7.00199Z" fill="white"/>
<path d="M155.429 7.002H163.175L175.14 23.9306H167.394L155.429 7.002Z" fill="white"/>
<path d="M143.227 15.4324C145.402 13.9753 148.374 14.5206 149.862 16.6502C151.35 18.7799 150.794 21.689 148.618 23.1461C146.442 24.6032 143.471 24.0578 141.983 21.9282C140.494 19.7982 141.051 16.8894 143.227 15.4324Z" fill="white"/>
<path d="M141.476 20.4144C141.476 20.4144 141.732 18.9799 142.275 18.1503C142.466 17.8588 143.855 15.9968 144.306 16.8993C144.591 17.4699 143.567 17.2247 142.632 18.2756C142.007 18.9773 141.476 20.4144 141.476 20.4144Z" fill="white"/>
</svg>
