<svg width="78" height="29" viewBox="0 0 78 29" fill="none" xmlns="http://www.w3.org/2000/svg">
<path d="M24 16.5V0.744432H34.2852V3.14952H26.7567V6.29905H31.7567V8.62778H26.7567V14.4131L24 16.5Z" fill="white"/>
<path d="M38.8881 14.2969C37.8995 14.2969 36.9996 14.0679 36.1884 13.6098C35.39 13.1516 34.7562 12.5345 34.2873 11.7582C33.8183 10.982 33.5839 10.1103 33.5839 9.14316C33.5839 8.17603 33.8057 7.30435 34.2493 6.5281C34.7056 5.75186 35.3203 5.13468 36.0934 4.67656C36.8665 4.21845 37.7284 3.9894 38.679 3.9894C39.6295 3.9894 40.4724 4.22481 41.2075 4.69565C41.9426 5.16649 42.5193 5.80276 42.9375 6.60445C43.3685 7.40615 43.5839 8.31601 43.5839 9.33404V10.0212H36.2455C36.3596 10.4157 36.5433 10.772 36.7968 11.0901C37.063 11.4083 37.3862 11.6564 37.7664 11.8346C38.1593 12.0127 38.5776 12.1018 39.0212 12.1018C39.4648 12.1018 39.8703 12.0318 40.2379 11.8918C40.6181 11.7519 40.9413 11.5546 41.2075 11.3001L42.9185 12.8653C42.3101 13.3616 41.6828 13.7243 41.0364 13.9533C40.4027 14.1824 39.6866 14.2969 38.8881 14.2969ZM36.2075 8.15058H41.0174C40.9286 7.7561 40.7639 7.41251 40.5231 7.11983C40.2949 6.81442 40.0161 6.579 39.6866 6.41357C39.3697 6.23542 39.0148 6.14634 38.6219 6.14634C38.2163 6.14634 37.8488 6.22906 37.5193 6.39448C37.1897 6.55991 36.9109 6.79533 36.6827 7.10074C36.4673 7.39342 36.3089 7.74337 36.2075 8.15058Z" fill="white"/>
<path d="M45.1797 14.106V0.744432L47.7843 0.305408V14.106H45.1797Z" fill="white"/>
<path d="M49.8212 14.106V4.16119H52.4257V14.106H49.8212ZM51.114 2.97773C50.7084 2.97773 50.3598 2.83139 50.0683 2.53871C49.7768 2.24602 49.6311 1.89608 49.6311 1.48887C49.6311 1.06893 49.7768 0.718982 50.0683 0.439024C50.3598 0.146341 50.7084 0 51.114 0C51.5322 0 51.8808 0.146341 52.1596 0.439024C52.4511 0.718982 52.5968 1.06893 52.5968 1.48887C52.5968 1.89608 52.4511 2.24602 52.1596 2.53871C51.8808 2.83139 51.5322 2.97773 51.114 2.97773Z" fill="white"/>
<path d="M54.4627 18V4.16119H57.0292V4.98197C57.8404 4.34571 58.7783 4.02757 59.8429 4.02757C60.7808 4.02757 61.63 4.25663 62.3904 4.71474C63.1509 5.17285 63.7529 5.79003 64.1965 6.56628C64.6528 7.3298 64.881 8.18876 64.881 9.14316C64.881 10.0976 64.6528 10.9629 64.1965 11.7391C63.7403 12.5027 63.1256 13.1135 62.3524 13.5716C61.5793 14.017 60.7174 14.2397 59.7669 14.2397C59.2726 14.2397 58.7973 14.176 58.341 14.0488C57.8847 13.9088 57.4601 13.7116 57.0672 13.4571V18H54.4627ZM59.4246 12.0255C59.9696 12.0255 60.4576 11.8982 60.8885 11.6437C61.3321 11.3892 61.6807 11.0456 61.9342 10.6129C62.1877 10.1803 62.3144 9.69035 62.3144 9.14316C62.3144 8.59597 62.1877 8.10604 61.9342 7.67338C61.6807 7.228 61.3321 6.88441 60.8885 6.64263C60.4576 6.38812 59.9696 6.26087 59.4246 6.26087C58.943 6.26087 58.4994 6.34358 58.0938 6.50901C57.7009 6.66172 57.3587 6.89714 57.0672 7.21527V11.0901C57.3461 11.3828 57.6883 11.6119 58.0938 11.7773C58.5121 11.9427 58.9557 12.0255 59.4246 12.0255Z" fill="white"/>
<path d="M71.3042 14.2969C70.3156 14.2969 69.4157 14.0679 68.6045 13.6098C67.806 13.1516 67.1723 12.5345 66.7034 11.7582C66.2344 10.982 66 10.1103 66 9.14316C66 8.17603 66.2218 7.30435 66.6654 6.5281C67.1216 5.75186 67.7363 5.13468 68.5095 4.67656C69.2826 4.21845 70.1445 3.9894 71.095 3.9894C72.0456 3.9894 72.8885 4.22481 73.6236 4.69565C74.3587 5.16649 74.9354 5.80276 75.3536 6.60445C75.7845 7.40615 76 8.31601 76 9.33404V10.0212H68.6616C68.7756 10.4157 68.9594 10.772 69.2129 11.0901C69.4791 11.4083 69.8022 11.6564 70.1825 11.8346C70.5754 12.0127 70.9936 12.1018 71.4372 12.1018C71.8808 12.1018 72.2864 12.0318 72.654 11.8918C73.0342 11.7519 73.3574 11.5546 73.6236 11.3001L75.3346 12.8653C74.7262 13.3616 74.0989 13.7243 73.4525 13.9533C72.8187 14.1824 72.1026 14.2969 71.3042 14.2969ZM68.6235 8.15058H73.4334C73.3447 7.7561 73.18 7.41251 72.9391 7.11983C72.711 6.81442 72.4322 6.579 72.1026 6.41357C71.7858 6.23542 71.4309 6.14634 71.038 6.14634C70.6324 6.14634 70.2649 6.22906 69.9353 6.39448C69.6058 6.55991 69.327 6.79533 69.0988 7.10074C68.8834 7.39342 68.7249 7.74337 68.6235 8.15058Z" fill="white"/>
<path d="M28.8724 28C27.7989 28 26.7507 27.7991 25.7278 27.3972C24.7049 26.9824 23.7956 26.3991 23 25.6472L24.5723 23.625C25.3426 24.325 26.0814 24.8306 26.7886 25.1417C27.5085 25.4528 28.2662 25.6083 29.0618 25.6083C29.6175 25.6083 30.0974 25.5435 30.5015 25.4139C30.9056 25.2713 31.215 25.0704 31.4297 24.8111C31.657 24.5519 31.7707 24.2472 31.7707 23.8972C31.7707 23.4306 31.6065 23.0741 31.2782 22.8278C30.9498 22.5685 30.3878 22.3676 29.5922 22.225L26.9591 21.7583C25.8352 21.5639 24.9764 21.1556 24.3829 20.5333C23.8019 19.9111 23.5115 19.1074 23.5115 18.1222C23.5115 17.2796 23.7198 16.5472 24.1366 15.925C24.566 15.3028 25.1658 14.8296 25.9362 14.5056C26.7192 14.1685 27.6474 14 28.7208 14C29.6933 14 30.6594 14.1685 31.6191 14.5056C32.5916 14.8426 33.4503 15.3093 34.1954 15.9056L32.7178 18.0056C31.3287 16.9167 29.9332 16.3722 28.5314 16.3722C28.0389 16.3722 27.6095 16.437 27.2433 16.5667C26.877 16.6963 26.5929 16.8778 26.3908 17.1111C26.2014 17.3315 26.1067 17.5972 26.1067 17.9083C26.1067 18.3231 26.2519 18.6472 26.5424 18.8806C26.8328 19.1009 27.319 19.2694 28.001 19.3861L30.5015 19.8139C31.8275 20.0343 32.8189 20.4685 33.4756 21.1167C34.1323 21.7519 34.4606 22.5944 34.4606 23.6444C34.4606 24.5259 34.2333 25.2972 33.7787 25.9583C33.324 26.6065 32.6736 27.112 31.8275 27.475C30.994 27.825 30.009 28 28.8724 28Z" fill="white"/>
<path d="M40.9131 28C39.9281 28 39.0378 27.7667 38.2421 27.3C37.4465 26.8333 36.8151 26.2046 36.3478 25.4139C35.8806 24.6231 35.6469 23.7352 35.6469 22.75C35.6469 21.7648 35.8742 20.8769 36.3289 20.0861C36.7961 19.2824 37.4276 18.6472 38.2232 18.1806C39.0314 17.7139 39.9281 17.4806 40.9131 17.4806C41.8982 17.4806 42.7885 17.7139 43.5841 18.1806C44.3924 18.6472 45.0238 19.2824 45.4784 20.0861C45.9457 20.8769 46.1793 21.7648 46.1793 22.75C46.1793 23.7352 45.9457 24.6231 45.4784 25.4139C45.0238 26.2046 44.3987 26.8333 43.6031 27.3C42.8074 27.7667 41.9108 28 40.9131 28ZM40.9131 25.6861C41.4309 25.6861 41.8919 25.5565 42.296 25.2972C42.7127 25.038 43.0411 24.688 43.281 24.2472C43.5336 23.7935 43.6599 23.2944 43.6599 22.75C43.6599 22.1926 43.5336 21.6935 43.281 21.2528C43.0411 20.812 42.7127 20.462 42.296 20.2028C41.8919 19.9306 41.4309 19.7944 40.9131 19.7944C40.408 19.7944 39.947 19.9306 39.5303 20.2028C39.1135 20.462 38.7852 20.812 38.5452 21.2528C38.3053 21.6935 38.1853 22.1926 38.1853 22.75C38.1853 23.2944 38.3053 23.7935 38.5452 24.2472C38.7852 24.688 39.1135 25.038 39.5303 25.2972C39.947 25.5565 40.408 25.6861 40.9131 25.6861Z" fill="white"/>
<path d="M51.6011 28C50.8433 28 50.1677 27.8315 49.5742 27.4944C48.9932 27.1444 48.5323 26.6648 48.1913 26.0556C47.8629 25.4463 47.6988 24.7463 47.6988 23.9556V17.675H50.294V23.5667C50.294 24.2148 50.4771 24.7333 50.8433 25.1222C51.2222 25.5111 51.7274 25.7056 52.3588 25.7056C52.7882 25.7056 53.1733 25.6213 53.5143 25.4528C53.8679 25.2713 54.2727 24.8241 54.5 24.5V18H57.0672L57.0664 27.8056H54.5V27C53.7423 27.6741 52.6998 28 51.6011 28Z" fill="white"/>
<path d="M58.4921 27.8056V25.9194L63.4552 19.9111H58.53V17.675H66.7702V19.5611L61.8071 25.5694H66.9029V27.8056H58.4921Z" fill="white"/>
<path d="M71.6012 27.9806C70.894 27.9806 70.2689 27.8509 69.7258 27.5917C69.1828 27.3194 68.7597 26.95 68.4566 26.4833C68.1535 26.0167 68.002 25.4787 68.002 24.8694C68.002 23.8972 68.3556 23.1454 69.0628 22.6139C69.7827 22.0694 70.7677 21.7972 72.0179 21.7972C72.8767 21.7972 73.6849 21.9333 74.4427 22.2056V21.4667C74.4427 20.8833 74.2659 20.4426 73.9123 20.1444C73.5587 19.8463 73.0409 19.6972 72.3589 19.6972C71.9422 19.6972 71.4939 19.7685 71.014 19.9111C70.5341 20.0407 69.9784 20.2481 69.347 20.5333L68.3998 18.5694C69.1828 18.2065 69.9279 17.9343 70.6351 17.7528C71.3549 17.5713 72.0748 17.4806 72.7946 17.4806C74.1206 17.4806 75.1499 17.8111 75.8824 18.4722C76.6274 19.1204 77 20.0407 77 21.2333V27.8056H74.4427V27.0861C74.0386 27.3972 73.6029 27.6241 73.1356 27.7667C72.6683 27.9093 72.1569 27.9806 71.6012 27.9806ZM70.4646 24.8111C70.4646 25.2 70.6288 25.5111 70.9571 25.7444C71.2855 25.9648 71.7212 26.075 72.2642 26.075C72.6936 26.075 73.0914 26.0231 73.4576 25.9194C73.8239 25.8028 74.1522 25.6343 74.4427 25.4139V23.9361C74.127 23.8065 73.7986 23.7093 73.4576 23.6444C73.1166 23.5796 72.7504 23.5472 72.3589 23.5472C71.7654 23.5472 71.2981 23.6639 70.9571 23.8972C70.6288 24.1176 70.4646 24.4222 70.4646 24.8111Z" fill="white"/>
<path d="M6.12704 7.9469V15.004C5.85178 15.004 5.58098 15.0221 5.31464 15.0584C2.3659 15.4568 0.0780089 17.9911 0.00111441 21.0838V14.9313H0C0 11.766 2.31464 8.52345 5.31464 8.01727C5.57987 7.97073 5.85178 7.94803 6.12704 7.94803V7.9469Z" fill="#00B5E8"/>
<path d="M6.12704 15.8926V20.4811C6.12704 21.2608 5.82615 21.9952 5.31464 22.5286C5.28566 22.5592 5.2578 22.5876 5.2266 22.616C5.211 22.6307 5.19539 22.6466 5.17979 22.6591C5.14524 22.6909 5.1107 22.7204 5.07392 22.751C5.04049 22.7794 5.00594 22.8055 4.97028 22.8327C4.95468 22.8452 4.93908 22.8554 4.92236 22.8679C4.88559 22.894 4.8477 22.9201 4.80981 22.944C4.76857 22.9701 4.72511 22.9962 4.68276 23.02C4.67496 23.0245 4.66716 23.0302 4.66048 23.0336C4.62927 23.0506 4.59695 23.0677 4.56575 23.0836C4.52897 23.1029 4.4922 23.1199 4.45542 23.1358C4.43871 23.1437 4.42199 23.1517 4.40416 23.1585C4.38187 23.1698 4.35624 23.1789 4.33284 23.188C4.29272 23.2039 4.25149 23.2198 4.21025 23.2334C1.81204 24.0358 0.0690936 26.3057 0.00111441 29V22.8475H0C0 22.8214 0 22.7942 0.00111441 22.768C0.0390045 19.6265 2.33915 16.46 5.31464 15.9629C5.57987 15.9164 5.85178 15.8937 6.12704 15.8937V15.8926Z" fill="#00B5E8"/>
<path d="M0.00104434 12.6807V12.8418H0C0 12.7873 0 12.7351 0.00104434 12.6807Z" fill="#00B5E8"/>
<path d="M14.8707 7.9469C14.8707 7.9957 14.8707 8.04337 14.8696 8.09217C14.8707 8.10012 14.8707 8.1092 14.8696 8.11714C14.8685 8.16821 14.8674 8.21929 14.8651 8.27036C14.8629 8.3237 14.8607 8.37818 14.8585 8.43152C14.8562 8.486 14.8529 8.53934 14.8473 8.59268C14.844 8.63581 14.8406 8.67894 14.8362 8.72206C14.8362 8.73909 14.8339 8.75611 14.8317 8.772C14.8273 8.81967 14.8217 8.86734 14.8172 8.915C14.7994 9.07617 14.7771 9.23619 14.7492 9.39622C14.7314 9.5029 14.7114 9.60845 14.6902 9.714C14.679 9.76167 14.669 9.80934 14.659 9.857C14.6567 9.86722 14.6556 9.8763 14.6523 9.88538C14.6411 9.93418 14.63 9.98071 14.6177 10.0284C14.6055 10.0806 14.5932 10.1328 14.5776 10.185C14.5676 10.2225 14.5576 10.2599 14.5464 10.2962C14.5264 10.37 14.5052 10.4426 14.4807 10.5153C14.4495 10.6095 14.4183 10.7037 14.3859 10.7967C14.3325 10.9465 14.2745 11.0952 14.211 11.2416C14.1943 11.2791 14.1775 11.3165 14.1608 11.354C14.1541 11.371 14.1463 11.3869 14.1385 11.4039C14.1196 11.4459 14.0995 11.4879 14.0795 11.5299C14.0327 11.6241 13.9859 11.7194 13.9357 11.8114C13.9112 11.859 13.8856 11.9033 13.8599 11.9498C13.8076 12.0406 13.7541 12.1314 13.6984 12.22C13.6705 12.2619 13.6437 12.3051 13.6148 12.3471C13.5758 12.4084 13.5323 12.4696 13.4877 12.5298C13.4432 12.5945 13.3975 12.6558 13.3484 12.7182C13.3451 12.725 13.3384 12.7329 13.3317 12.7398C13.3061 12.7738 13.2782 12.8078 13.2504 12.8419C13.2426 12.8544 13.2314 12.8657 13.2192 12.8794C13.1935 12.9111 13.1668 12.9429 13.1411 12.9724C13.1077 13.0121 13.0721 13.0519 13.0364 13.0916C13.0085 13.1222 12.9818 13.1506 12.9528 13.1812C12.9383 13.196 12.9249 13.2108 12.9116 13.2244C12.8815 13.255 12.8525 13.2845 12.8224 13.314C12.809 13.3288 12.7968 13.3401 12.7834 13.3526C12.7533 13.3833 12.7232 13.4116 12.692 13.44C12.6397 13.4888 12.5862 13.5365 12.5316 13.583C12.5293 13.5864 12.526 13.5876 12.5238 13.5898C12.4703 13.6375 12.4145 13.6829 12.3588 13.7272C12.312 13.7646 12.2652 13.7998 12.2173 13.835C12.1894 13.8554 12.1627 13.8758 12.1337 13.8951C12.0891 13.9269 12.0446 13.9587 11.9989 13.9882C11.9365 14.029 11.8752 14.0699 11.8105 14.1085C10.9647 14.626 9.94166 14.9302 8.7459 14.9302L6.13037 15.004V7.9469H14.8729H14.8707Z" fill="#00B5E8"/>
<g style="mix-blend-mode:overlay">
<path d="M14.8719 7.9469C14.8719 7.9957 14.8719 8.04337 14.8696 8.09217C14.8708 8.10012 14.8708 8.1092 14.8696 8.11714C14.8685 8.16821 14.8674 8.21929 14.8652 8.27036C14.863 8.3237 14.8607 8.37818 14.8585 8.43152C14.8563 8.486 14.8529 8.53934 14.8474 8.59268C14.844 8.63581 14.8407 8.67894 14.8362 8.72206C14.8362 8.73909 14.834 8.75611 14.8318 8.772C14.8273 8.81967 14.8217 8.86734 14.8173 8.915C14.7994 9.07617 14.7783 9.23619 14.7493 9.39622C14.7326 9.5029 14.7125 9.60845 14.6902 9.714C14.6791 9.76167 14.6691 9.80934 14.659 9.857C14.6568 9.86722 14.6557 9.8763 14.6523 9.88538C14.6412 9.93418 14.63 9.98071 14.6178 10.0284C14.6055 10.0806 14.5933 10.1328 14.5777 10.185C14.5676 10.2225 14.5576 10.2599 14.5465 10.2962C14.5264 10.37 14.5052 10.4426 14.4807 10.5153C14.4506 10.6095 14.4205 10.7048 14.386 10.7967C14.3325 10.9477 14.2745 11.0964 14.211 11.2416C14.1943 11.2791 14.1776 11.3165 14.1609 11.354C14.1542 11.371 14.1464 11.3869 14.1386 11.4039C14.1196 11.4459 14.1007 11.4879 14.0795 11.5299C14.0327 11.6241 13.9859 11.7194 13.9358 11.8114C13.9113 11.859 13.8856 11.9033 13.86 11.9498C13.8087 12.0406 13.7552 12.1314 13.6984 12.22C13.6705 12.2619 13.6438 12.3051 13.6148 12.3471C13.5758 12.4084 13.5324 12.4696 13.4878 12.5298C13.4432 12.5945 13.3975 12.6558 13.3485 12.7182C13.3451 12.725 13.3384 12.7329 13.3318 12.7398C13.3061 12.7738 13.2783 12.8078 13.2504 12.8419C13.2426 12.8544 13.2315 12.8657 13.2192 12.8794C13.1936 12.9111 13.1668 12.9429 13.1412 12.9724C13.1078 13.0121 13.0721 13.0519 13.0364 13.0916C13.0086 13.1222 12.9818 13.1506 12.9529 13.1812C12.9384 13.196 12.925 13.2108 12.9116 13.2244C12.8815 13.255 12.8526 13.2845 12.8225 13.314C12.8091 13.3288 12.7968 13.3401 12.7835 13.3526C12.7534 13.3833 12.7233 13.4116 12.6921 13.44C12.6397 13.4888 12.5862 13.5365 12.5316 13.583C12.5294 13.5864 12.526 13.5876 12.5238 13.5898C12.4703 13.6375 12.4146 13.6829 12.3589 13.7272C12.3121 13.7646 12.2653 13.7998 12.2173 13.835C12.1895 13.8554 12.1627 13.8758 12.1338 13.8951C12.0892 13.9269 12.0446 13.9587 11.9989 13.9882C11.9365 14.029 11.8752 14.0699 11.8106 14.1085C13.3563 12.7647 14.1308 10.6117 14.1308 8.49281H6.12708V7.9469H14.8719Z" fill="#00B5E8"/>
</g>
<path opacity="0.2" d="M0.00104434 22.7668C0 22.7941 0 22.8202 0 22.8463H0.00104434V22.7668Z" fill="#00B5E8"/>
<path opacity="0.2" d="M5.31464 8.01613C5.57987 7.9696 5.85178 7.9469 6.12704 7.9469V15.004C5.85178 15.004 5.58098 15.0221 5.31464 15.0584V8.01613Z" fill="#00B5E8"/>
<path opacity="0.2" d="M5.31462 15.9618C5.57985 15.9153 5.85177 15.8926 6.12703 15.8926V20.4811C6.12703 21.2608 5.82614 21.9952 5.31462 22.5286C5.28564 22.5592 5.25778 22.5876 5.22658 22.616C5.21098 22.6307 5.19538 22.6466 5.17978 22.6591C5.14523 22.6909 5.11068 22.7204 5.07391 22.751C5.04047 22.7794 5.00593 22.8055 4.97027 22.8327C4.95466 22.8452 4.93906 22.8554 4.92235 22.8679C4.88557 22.894 4.84768 22.9201 4.80979 22.944C4.76856 22.9701 4.7251 22.9962 4.68275 23.02C4.67495 23.0245 4.66715 23.0302 4.66046 23.0336C4.62926 23.0506 4.59694 23.0677 4.56573 23.0836C4.52896 23.1029 4.49218 23.1199 4.45541 23.1358C4.43869 23.1437 4.42198 23.1517 4.40414 23.1585C4.38186 23.1698 4.35622 23.1789 4.33282 23.188C4.2927 23.2039 4.25147 23.2198 4.21024 23.2334C1.81202 24.0358 0.0690778 26.3057 0.00109863 29V28.1113C0.0690778 25.417 1.81202 23.1483 4.20912 22.3436C4.21358 22.3424 4.21804 22.3402 4.2225 22.339C4.88334 22.1132 5.31462 21.4651 5.31462 20.7547V15.9607V15.9618Z" fill="#00B5E8"/>
<path d="M6.12704 0V7.05706C5.85178 7.05706 5.58098 7.07522 5.31464 7.11154C2.3659 7.50877 0.0780089 10.0431 0.00111441 13.1358V6.98329H0C0 3.81794 2.31464 0.575415 5.31464 0.0692314C5.57987 0.0226988 5.85178 0 6.12704 0Z" fill="#00B5E8"/>
<path d="M20.9988 0C20.9988 3.44681 18.9483 6.98329 14.8707 6.98329L6.12811 7.05706V0H21H20.9988Z" fill="#00B5E8"/>
<g style="mix-blend-mode:overlay">
<path d="M20.9989 0C20.9989 2.43558 19.9759 4.91656 17.9343 6.16159C19.48 4.81782 20.2545 2.66484 20.2545 0.545906H6.12708V0H20.9989Z" fill="#00B5E8"/>
</g>
<path opacity="0.2" d="M6.12704 0V7.05706C5.85178 7.05706 5.58098 7.07522 5.31464 7.11154V0.0692314C5.57987 0.0226988 5.85178 0 6.12704 0Z" fill="#00B5E8"/>
</svg>
