<svg width="153" height="41" viewBox="0 0 153 41" fill="none" xmlns="http://www.w3.org/2000/svg">
<rect width="41" height="41" rx="4" fill="#3083BF"/>
<path fill-rule="evenodd" clip-rule="evenodd" d="M25.4012 14.6783C25.5831 14.6722 25.8145 14.6602 25.9955 14.6783C26.3947 14.6783 26.0318 14.6783 26.3765 14.6783C26.4498 14.6976 26.6487 14.6584 26.5624 14.6783C26.5019 14.6783 26.4341 14.8943 26.3736 14.8943C26.3736 14.9548 26.2358 15.0774 26.2358 15.0774C26.5217 14.7491 26.3947 14.858 26.5624 14.6783C28.6426 14.6722 30.7233 14.6783 32.8035 14.6964C32.8518 16.2567 32.8518 17.817 32.8035 19.3773C32.8249 19.3941 32.8492 19.4001 32.8761 19.3954C29.7312 19.4196 26.5866 19.4438 23.4418 19.468C23.0094 19.6108 22.7796 19.9132 22.7524 20.3751C22.8145 20.7941 23.0443 21.0783 23.4418 21.2278C24.5793 21.2328 25.7163 21.257 26.8527 21.3004C28.3113 21.3954 29.6296 21.8671 30.8078 22.7155C32.4105 24.1745 33.0575 25.9828 32.7491 28.1402C32.277 30.6443 30.7955 32.1741 28.3041 32.7304C27.5377 32.8879 26.7637 32.9847 25.9818 33.0207C23.2974 32.9746 20.6123 32.9564 17.9264 32.9662C17.9264 31.3697 17.9264 29.7731 17.9264 28.1765C21.1195 28.158 24.3126 28.1399 27.5058 28.1221C28.1172 27.9461 28.3651 27.5411 28.2497 26.9065C28.1288 26.5679 27.893 26.3563 27.5421 26.2715C26.2057 26.2989 24.8752 26.2264 23.5507 26.0538C22.1075 25.852 20.8254 25.2956 19.7044 24.3847C18.3195 22.9895 17.7812 21.3144 18.0897 19.3591C18.5086 17.1745 19.7847 15.7775 21.9178 15.1681C23.0575 14.8512 24.2186 14.6879 25.4012 14.6783Z" fill="white"/>
<path d="M31.207 8.07425C31.5869 8.12218 31.974 8.14638 32.3681 8.14682C32.5379 8.15295 32.7074 8.16503 32.8761 8.1831C32.8761 9.63453 32.8761 11.086 32.8761 12.5374C30.3782 12.5253 27.8868 12.5374 25.4013 12.5737C25.1116 12.5978 24.8213 12.6099 24.5304 12.61C24.2255 12.5869 23.9352 12.6112 23.6595 12.6825C22.5173 12.7301 21.3924 12.8933 20.285 13.1724C18.068 13.7568 16.7314 15.178 16.2754 17.4359C16.215 17.823 16.1605 18.2101 16.1121 18.5971C16.0503 18.7931 16.0261 18.9988 16.0396 19.2139C15.9746 20.2283 15.9504 21.2443 15.967 22.2619C15.979 22.6497 15.9669 23.0368 15.9307 23.4231C15.8951 23.3292 15.8968 23.5228 15.9081 23.4231C15.7263 23.4171 15.7626 23.7117 15.5816 23.7298C15.5844 23.958 15.7659 23.5226 15.763 23.7661C15.9323 23.7661 15.6888 23.8585 15.8581 23.8585C15.9299 26.8308 15.9541 29.8061 15.9307 32.7848C14.444 32.8145 12.9563 32.8327 11.4676 32.8392C12.9667 32.8566 14.4604 32.8628 15.9488 32.8573C15.9865 32.8305 16.0047 32.7942 16.0033 32.7485C16.0153 32.7485 16.0275 32.7485 16.0396 32.7485C16.0396 32.8091 16.0396 32.8693 16.0396 32.9299C14.4793 32.9299 12.919 32.9299 11.3587 32.9299C11.3587 31.1882 11.3587 29.4465 11.3587 27.7048C11.6189 27.6987 11.764 27.5656 11.7941 27.3056C11.7941 27.3056 11.6134 26.9243 11.3587 26.9065C11.3707 25.5578 11.3586 24.2152 11.3224 22.8788C9.88928 22.8425 8.44994 22.8305 7.00442 22.8425C6.99252 21.2796 7.00464 19.7193 7.04071 18.1617C7.25842 18.1617 7.47614 18.1617 7.69385 18.1617C8.66134 18.1818 9.62897 18.1939 10.5967 18.1979C10.8991 18.1979 11.2015 18.1979 11.5038 18.1979C11.4059 16.2084 11.8897 14.382 12.9553 12.7188C13.1854 12.4224 13.4212 12.1321 13.6628 11.848C13.6995 11.8176 13.6628 11.848 13.7491 11.7737C13.8165 11.6946 13.7905 11.7372 13.808 11.7028C14.5141 11.0205 15.3003 10.452 16.1666 9.99739C17.4505 9.38518 18.787 8.93161 20.1761 8.63668C22.7189 8.19043 25.2831 7.97878 27.8687 8.00168C28.9819 8.00472 30.0948 8.02889 31.207 8.07425Z" fill="white"/>
<path d="M11.318 22.7319H13.6221H15.9263V32.9282H11.318V22.7319Z" fill="white"/>
<path d="M56.712 32.372V19.348H53V15.7H56.712V14.1C56.712 12.2227 57.256 10.7933 58.344 9.81198C59.432 8.80932 61 8.30798 63.048 8.30798C63.496 8.30798 63.9547 8.32932 64.424 8.37198C64.8933 8.41465 65.2987 8.48932 65.64 8.59598V12.276C65.2347 12.1907 64.8827 12.1267 64.584 12.084C64.2853 12.0413 63.9547 12.02 63.592 12.02C62.76 12.02 62.1307 12.2013 61.704 12.564C61.2987 12.9053 61.096 13.4493 61.096 14.196V15.7H65.64V19.348H61.096V32.372H56.712Z" fill="#0B0C0C"/>
<path d="M74.1733 32.692C72.6372 32.692 71.2186 32.5 69.9172 32.116C68.6159 31.7107 67.4853 31.1347 66.5253 30.388L68.7013 27.476C69.6613 28.116 70.5786 28.596 71.4533 28.916C72.3493 29.236 73.2346 29.396 74.1093 29.396C75.0906 29.396 75.8693 29.236 76.4453 28.916C77.0426 28.5747 77.3413 28.1373 77.3413 27.604C77.3413 27.1773 77.1706 26.836 76.8293 26.58C76.5093 26.324 75.9866 26.1427 75.2613 26.036L72.0613 25.556C70.3973 25.3 69.1386 24.7667 68.2852 23.956C67.4319 23.124 67.0052 22.036 67.0052 20.692C67.0052 19.604 67.2826 18.676 67.8372 17.908C68.4132 17.1187 69.2132 16.5107 70.2372 16.084C71.2826 15.636 72.5199 15.412 73.9493 15.412C75.1653 15.412 76.3493 15.5827 77.5013 15.924C78.6746 16.2653 79.7733 16.788 80.7973 17.492L78.6853 20.34C77.7679 19.764 76.8932 19.348 76.0613 19.092C75.2292 18.836 74.3866 18.708 73.5333 18.708C72.7439 18.708 72.1039 18.8573 71.6133 19.156C71.1439 19.4547 70.9093 19.8493 70.9093 20.34C70.9093 20.788 71.0799 21.14 71.4212 21.396C71.7626 21.652 72.3492 21.8333 73.1812 21.94L76.3493 22.42C78.0133 22.6547 79.2826 23.188 80.1573 24.02C81.0319 24.8307 81.4693 25.8867 81.4693 27.188C81.4693 28.2547 81.1493 29.204 80.5093 30.036C79.8693 30.8467 79.0053 31.4973 77.9173 31.988C76.8293 32.4573 75.5813 32.692 74.1733 32.692Z" fill="#0B0C0C"/>
<path d="M91.9363 32.692C90.2723 32.692 88.7682 32.308 87.4243 31.54C86.0802 30.772 85.0136 29.7373 84.2243 28.436C83.4349 27.1346 83.0403 25.6733 83.0403 24.052C83.0403 22.4307 83.4242 20.9693 84.1922 19.668C84.9816 18.3453 86.0482 17.3 87.3923 16.532C88.7576 15.764 90.2723 15.38 91.9363 15.38C93.6003 15.38 95.1042 15.764 96.4482 16.532C97.8136 17.3 98.8802 18.3453 99.6483 19.668C100.438 20.9693 100.832 22.4307 100.832 24.052C100.832 25.6733 100.438 27.1346 99.6483 28.436C98.8802 29.7373 97.8242 30.772 96.4803 31.54C95.1363 32.308 93.6216 32.692 91.9363 32.692ZM91.9363 28.884C92.8109 28.884 93.5896 28.6707 94.2723 28.244C94.9762 27.8173 95.5309 27.2413 95.9363 26.516C96.3629 25.7693 96.5763 24.948 96.5763 24.052C96.5763 23.1347 96.3629 22.3133 95.9363 21.588C95.5309 20.8627 94.9762 20.2867 94.2723 19.86C93.5896 19.412 92.8109 19.188 91.9363 19.188C91.0829 19.188 90.3042 19.412 89.6003 19.86C88.8963 20.2867 88.3416 20.8627 87.9362 21.588C87.5309 22.3133 87.3283 23.1347 87.3283 24.052C87.3283 24.948 87.5309 25.7693 87.9362 26.516C88.3416 27.2413 88.8963 27.8173 89.6003 28.244C90.3042 28.6707 91.0829 28.884 91.9363 28.884Z" fill="#0B0C0C"/>
<path d="M109.991 32.692C108.711 32.692 107.57 32.4147 106.567 31.86C105.586 31.284 104.807 30.4947 104.231 29.492C103.676 28.4893 103.399 27.3373 103.399 26.036V15.7H107.783V25.396C107.783 26.4627 108.092 27.316 108.711 27.956C109.351 28.596 110.204 28.916 111.271 28.916C111.996 28.916 112.647 28.7773 113.223 28.5C113.82 28.2013 114.311 27.7853 114.695 27.252V15.7H119.079V32.372H114.695V31.028C113.415 32.1373 111.847 32.692 109.991 32.692Z" fill="#0B0C0C"/>
<path d="M121.632 32.372V29.268L130.016 19.38H121.696V15.7H135.616V18.804L127.232 28.692H135.84V32.372H121.632Z" fill="#0B0C0C"/>
<path d="M143.776 32.66C142.582 32.66 141.526 32.4467 140.608 32.02C139.691 31.572 138.977 30.964 138.465 30.196C137.952 29.428 137.697 28.5427 137.697 27.54C137.697 25.94 138.294 24.7027 139.489 23.828C140.705 22.932 142.368 22.484 144.48 22.484C145.931 22.484 147.297 22.708 148.576 23.156V21.94C148.576 20.98 148.278 20.2547 147.681 19.764C147.083 19.2733 146.209 19.028 145.057 19.028C144.353 19.028 143.595 19.1453 142.785 19.38C141.974 19.5933 141.035 19.9347 139.968 20.404L138.368 17.172C139.691 16.5747 140.95 16.1267 142.145 15.828C143.361 15.5293 144.576 15.38 145.793 15.38C148.033 15.38 149.771 15.924 151.008 17.012C152.267 18.0787 152.896 19.5933 152.896 21.556V32.372H148.576V31.188C147.894 31.7 147.158 32.0733 146.368 32.308C145.579 32.5427 144.715 32.66 143.776 32.66ZM141.856 27.444C141.856 28.084 142.134 28.596 142.688 28.98C143.243 29.3427 143.979 29.524 144.896 29.524C145.622 29.524 146.294 29.4387 146.912 29.268C147.531 29.076 148.086 28.7987 148.576 28.436V26.004C148.043 25.7907 147.488 25.6306 146.912 25.524C146.337 25.4173 145.718 25.364 145.057 25.364C144.054 25.364 143.264 25.556 142.688 25.94C142.134 26.3027 141.856 26.804 141.856 27.444Z" fill="#0B0C0C"/>
</svg>
