<svg width="132" height="36" viewBox="0 0 132 36" fill="none" xmlns="http://www.w3.org/2000/svg">
<path fill-rule="evenodd" clip-rule="evenodd" d="M119.813 13.1176L129.817 24.1157C129.99 24.3102 129.968 24.4614 129.774 24.4614H124.351C124.264 24.4614 124.113 24.375 124.026 24.2886L116.81 16.4235L113.828 13.1608L103.845 24.1157C103.672 24.3102 103.694 24.4614 103.888 24.4614H109.333C109.42 24.4614 109.571 24.375 109.658 24.2886L119.813 13.1176ZM4.97005 24.4398H0.540541C0.346075 24.4398 0.194824 24.2886 0.194824 24.0941V2.65964C0.194824 2.46517 0.346075 2.31392 0.540541 2.31392H4.97005C5.16451 2.31392 5.31576 2.46517 5.31576 2.65964V24.0941C5.29416 24.2886 5.1429 24.4398 4.97005 24.4398ZM23.1418 1.88177C29.1703 1.88177 35.3068 5.40377 35.6093 11.7995C35.6309 12.0372 35.6309 12.2749 35.6309 12.5126V24.1157C35.6309 24.3102 35.4796 24.4614 35.2851 24.4614H30.8556C30.6612 24.4614 30.5099 24.3102 30.5099 24.1157V12.3181C30.5099 8.1479 26.7719 6.3761 23.1418 6.3761C19.5118 6.3761 15.7737 8.1479 15.7737 12.3181V24.1157C15.7737 24.3102 15.6225 24.4614 15.428 24.4614H10.9985C10.804 24.4614 10.6528 24.3102 10.6528 24.1157V12.5126C10.6528 12.2749 10.6528 12.0372 10.6744 11.7995C10.9985 5.40377 17.1134 1.88177 23.1418 1.88177ZM77.6787 24.8936C71.6503 24.8936 65.5138 21.3716 65.2113 14.9758C65.1897 14.7381 65.1897 14.5005 65.1897 14.2628V2.65964C65.1897 2.46517 65.341 2.31392 65.5354 2.31392H69.9649C70.1594 2.31392 70.3106 2.46517 70.3106 2.65964V14.4572C70.3106 18.6275 74.0487 20.3993 77.6787 20.3993C81.3088 20.3993 85.0469 18.6275 85.0469 14.4572V2.65964C85.0469 2.46517 85.1981 2.31392 85.3926 2.31392H89.8221C90.0165 2.31392 90.1678 2.46517 90.1678 2.65964V14.2628C90.1678 14.5005 90.1678 14.7381 90.1462 14.9758C89.8221 21.3716 83.6856 24.8936 77.6787 24.8936ZM95.8505 2.33553H100.28C100.474 2.33553 100.626 2.48678 100.626 2.68125V24.1157C100.626 24.3102 100.474 24.4614 100.28 24.4614H95.8505C95.656 24.4614 95.5048 24.3102 95.5048 24.1157V2.68125C95.5264 2.48678 95.6777 2.33553 95.8505 2.33553ZM61.8838 2.33553C62.0782 2.33553 62.2295 2.48678 62.2295 2.68125V6.44093C62.2295 6.63539 62.0782 6.78664 61.8838 6.78664H52.5278V24.1373C52.5278 24.3318 52.3765 24.4831 52.1821 24.4831H47.7526C47.5581 24.4831 47.4069 24.3318 47.4069 24.1373V6.78664H38.0509C37.8564 6.78664 37.7052 6.63539 37.7052 6.44093V2.68125C37.7052 2.48678 37.8564 2.33553 38.0509 2.33553C46.0024 2.33553 53.9539 2.33553 61.8838 2.33553Z" fill="white"/>
<path fill-rule="evenodd" clip-rule="evenodd" d="M118.778 11.9723H112.814L112.728 11.8858H118.691L117.762 10.8703H111.82L111.647 10.6974H117.611C122.256 15.7752 118.886 12.0587 118.778 11.9723ZM110.805 9.74671L110.567 9.48742H116.531L115.753 8.64473H109.789L109.465 8.29901H115.429L114.737 7.54276H108.795L108.406 7.11061H114.37L113.765 6.44078H107.801L107.326 5.92221H113.289L112.749 5.33881H106.786L106.245 4.7338H112.209L111.755 4.23684H105.77L105.143 3.5454H111.107L110.718 3.13486H104.755L104.366 2.70271C104.193 2.50825 104.214 2.35699 104.409 2.35699H109.854C109.94 2.35699 110.092 2.44342 110.178 2.52985L117.611 10.6974L116.768 9.76831H110.805V9.74671Z" fill="white"/>
<path fill-rule="evenodd" clip-rule="evenodd" d="M131.48 0.326169L128.239 3.86977L121.303 11.4972H121.282L119.423 13.5499L116.809 16.4236L114.303 13.7011C114.13 13.5283 113.978 13.3554 113.827 13.1825L116.831 9.85501L125.279 0.585456H125.301L125.69 0.174918C125.776 0.0884885 125.927 0.00205851 126.014 0.00205851H131.459C131.632 -0.0195488 131.632 0.131703 131.48 0.326169Z" fill="white"/>
<path fill-rule="evenodd" clip-rule="evenodd" d="M2.29038 36C3.43557 36 4.23504 35.395 4.23504 34.3579V34.3363C4.23504 33.4287 3.65164 33.0182 2.48484 32.7373C1.42608 32.478 1.1884 32.3052 1.1884 31.873C1.1884 31.5057 1.51251 31.2248 2.0743 31.2248C2.57127 31.2248 3.06824 31.4193 3.56521 31.7866L4.08379 31.0519C3.522 30.5982 2.89538 30.3605 2.09591 30.3605C1.01554 30.3605 0.23768 31.0087 0.23768 31.9378V31.9594C0.23768 32.975 0.885901 33.3207 2.0527 33.6016C3.06824 33.8393 3.28431 34.0554 3.28431 34.4443V34.4659C3.28431 34.8764 2.91699 35.1573 2.31198 35.1573C1.64216 35.1573 1.10197 34.898 0.583397 34.4443L0 35.1357C0.64822 35.6975 1.44769 36 2.29038 36ZM7.30328 35.9136H8.254V32.0027L9.96098 34.5739H9.98259L11.7112 32.0027V35.9136H12.6619V30.4469H11.6464L9.98259 33.0398L8.31882 30.4469H7.30328V35.9136ZM15.5357 35.9136H16.5296L17.0914 34.5955H19.6843L20.2461 35.9136H21.2616L18.8632 30.4037H17.9773L15.5357 35.9136ZM17.4371 33.7529L18.3662 31.5705L19.317 33.7529H17.4371ZM24.1138 35.9136H25.0645V34.0121H26.2745L27.6142 35.9136H28.7594L27.2901 33.8393C28.0463 33.6232 28.5865 33.083 28.5865 32.1755V32.1539C28.5865 31.6785 28.4136 31.268 28.1328 30.9655C27.787 30.6198 27.2469 30.4253 26.5554 30.4253H24.1138V35.9136ZM25.0645 33.1478V31.3112H26.469C27.182 31.3112 27.5926 31.6353 27.5926 32.2187V32.2403C27.5926 32.8021 27.1604 33.1478 26.469 33.1478H25.0645ZM33.016 35.9136H33.9883V31.3328H35.7169V30.4469H31.2874V31.3328H33.016V35.9136Z" fill="white"/>
<path fill-rule="evenodd" clip-rule="evenodd" d="M43.7554 36C44.7709 36 45.3975 35.6327 45.9809 35.0277L45.3543 34.4011C44.8789 34.8332 44.4468 35.1141 43.777 35.1141C42.7398 35.1141 41.962 34.2498 41.962 33.1695C41.962 32.0891 42.7182 31.2464 43.777 31.2464C44.4036 31.2464 44.8789 31.5273 45.3111 31.9162L45.9377 31.2032C45.4191 30.7062 44.8141 30.3605 43.7986 30.3605C42.1348 30.3605 40.968 31.6353 40.968 33.1911V33.2127C40.968 34.7684 42.1564 36 43.7554 36ZM48.6386 35.9136H52.7224V35.0493H49.5893V33.58H52.3335V32.7157H49.5893V31.2896H52.6792V30.4253H48.617V35.9136H48.6386ZM55.5314 35.9136H56.4821V34.0121H57.6921L59.0318 35.9136H60.1769L58.7076 33.8393C59.4639 33.6232 60.0041 33.083 60.0041 32.1755V32.1539C60.0041 31.6785 59.8312 31.268 59.5503 30.9655C59.2046 30.6198 58.6644 30.4253 57.973 30.4253H55.5314V35.9136ZM56.4821 33.1478V31.3112H57.8866C58.5996 31.3112 59.0101 31.6353 59.0101 32.2187V32.2403C59.0101 32.8021 58.578 33.1478 57.8866 33.1478H56.4821ZM64.1527 35.9136H65.125V31.3328H66.8536V30.4469H62.4241V31.3328H64.1527V35.9136ZM69.5761 35.9136H70.5269V30.4469H69.5761V35.9136ZM73.6599 35.9136H74.6106V33.688H77.3764V32.8237H74.6106V31.3328H77.7221V30.4685H73.6599V35.9136ZM80.4878 35.9136H81.4386V30.4469H80.4878V35.9136ZM87.0997 36C88.1152 36 88.7418 35.6327 89.3252 35.0277L88.6986 34.4011C88.2233 34.8332 87.7911 35.1141 87.1213 35.1141C86.0841 35.1141 85.3063 34.2498 85.3063 33.1695C85.3063 32.0891 86.0625 31.2464 87.1213 31.2464C87.7479 31.2464 88.2233 31.5273 88.6554 31.9162L89.282 31.2032C88.7635 30.7062 88.1584 30.3605 87.1429 30.3605C85.4791 30.3605 84.3339 31.6353 84.3339 33.1911V33.2127C84.3339 34.7684 85.5007 36 87.0997 36ZM91.5076 35.9136H92.5015L93.0633 34.5955H95.6562L96.218 35.9136H97.2335L94.8351 30.4037H93.9492L91.5076 35.9136ZM93.409 33.7529L94.3381 31.5705L95.2889 33.7529H93.409ZM100.453 35.9136H101.425V31.3328H103.154V30.4469H98.7244V31.3328H100.453V35.9136ZM105.876 35.9136H106.827V30.4469H105.876V35.9136ZM112.575 36C114.26 36 115.449 34.7036 115.449 33.1695C115.449 31.6353 114.282 30.3605 112.596 30.3605C110.911 30.3605 109.723 31.6569 109.723 33.1911V33.2127C109.723 34.7252 110.889 36 112.575 36ZM112.575 35.1141C111.494 35.1141 110.717 34.2498 110.717 33.1695C110.717 32.1107 111.473 31.2464 112.553 31.2464C113.633 31.2464 114.411 32.1323 114.411 33.1911V33.2127C114.433 34.2498 113.655 35.1141 112.575 35.1141ZM118.257 35.9136H119.208V32.0243L122.233 35.9136H123.033V30.4469H122.082V34.2282L119.143 30.4469H118.257V35.9136ZM127.981 36C129.126 36 129.925 35.395 129.925 34.3579V34.3363C129.925 33.4287 129.342 33.0182 128.175 32.7373C127.116 32.478 126.879 32.3052 126.879 31.873C126.879 31.5057 127.203 31.2248 127.765 31.2248C128.262 31.2248 128.759 31.4193 129.256 31.7866L129.774 31.0519C129.212 30.5982 128.586 30.3605 127.786 30.3605C126.706 30.3605 125.928 31.0087 125.928 31.9378V31.9594C125.928 32.975 126.576 33.3207 127.743 33.6016C128.759 33.8393 128.975 34.0554 128.975 34.4443V34.4659C128.975 34.8764 128.607 35.1573 128.002 35.1573C127.333 35.1573 126.792 34.898 126.274 34.4443L125.69 35.1357C126.36 35.6975 127.16 36 127.981 36Z" fill="white"/>
</svg>
