   <svg
    xmlns="http://www.w3.org/2000/svg"
    width="37"
    height="36"
    viewBox="0 0 37 36"
    fill="none"
>
    <path
    d="M32.4071 0C33.4702 0 34.4898 0.421427 35.2415 1.17157C35.9932 1.92172 36.4155 2.93913 36.4155 4V32C36.4155 33.0609 35.9932 34.0783 35.2415 34.8284C34.4898 35.5786 33.4702 36 32.4071 36H4.34868C3.2856 36 2.26606 35.5786 1.51435 34.8284C0.762639 34.0783 0.340332 33.0609 0.340332 32V4C0.340332 2.93913 0.762639 1.92172 1.51435 1.17157C2.26606 0.421427 3.2856 0 4.34868 0H32.4071ZM31.4051 31V20.4C31.4051 18.6708 30.7167 17.0124 29.4914 15.7897C28.2661 14.5669 26.6043 13.88 24.8714 13.88C23.1679 13.88 21.1838 14.92 20.2218 16.48V14.26H14.6301V31H20.2218V21.14C20.2218 19.6 21.4643 18.34 23.0076 18.34C23.7517 18.34 24.4654 18.635 24.9916 19.1601C25.5178 19.6852 25.8134 20.3974 25.8134 21.14V31H31.4051ZM8.11653 11.12C9.00952 11.12 9.86593 10.766 10.4974 10.1359C11.1288 9.50576 11.4835 8.65113 11.4835 7.76C11.4835 5.9 9.98042 4.38 8.11653 4.38C7.21823 4.38 6.35672 4.73611 5.72152 5.36998C5.08633 6.00385 4.72948 6.86357 4.72948 7.76C4.72948 9.62 6.25265 11.12 8.11653 11.12ZM10.9023 31V14.26H5.35077V31H10.9023Z"
    fill="white"
    />
</svg>