<svg width="30" height="35" viewBox="0 0 30 35" fill="none" xmlns="http://www.w3.org/2000/svg">
<path d="M15 33C15 33 28 24.504 28 14.682C28 7.678 22.18 2 15 2C7.82 2 2 7.678 2 14.682C2 24.504 15 33 15 33Z" fill="white" stroke="white" stroke-width="4" stroke-linejoin="round"/>
<path d="M15 20C16.3261 20 17.5979 19.4732 18.5355 18.5355C19.4732 17.5979 20 16.3261 20 15C20 13.6739 19.4732 12.4021 18.5355 11.4645C17.5979 10.5268 16.3261 10 15 10C13.6739 10 12.4021 10.5268 11.4645 11.4645C10.5268 12.4021 10 13.6739 10 15C10 16.3261 10.5268 17.5979 11.4645 18.5355C12.4021 19.4732 13.6739 20 15 20Z" fill="#000916" stroke="#000916" stroke-width="4" stroke-linejoin="round"/>
</svg>
